<?xml version="1.0" encoding="UTF-8" standalone="no"?>
<!-- Generator: Adobe Illustrator 18.0.0, SVG Export Plug-In . SVG Version: 6.00 Build 0)  -->

<svg
   xmlns:dc="http://purl.org/dc/elements/1.1/"
   xmlns:cc="http://creativecommons.org/ns#"
   xmlns:rdf="http://www.w3.org/1999/02/22-rdf-syntax-ns#"
   xmlns:svg="http://www.w3.org/2000/svg"
   xmlns="http://www.w3.org/2000/svg"
   xmlns:sodipodi="http://sodipodi.sourceforge.net/DTD/sodipodi-0.dtd"
   xmlns:inkscape="http://www.inkscape.org/namespaces/inkscape"
   version="1.1"
   id="Capa_1"
   x="0px"
   y="0px"
   viewBox="0 0 186.846 186.846"
   style="enable-background:new 0 0 186.846 186.846;"
   xml:space="preserve"
   sodipodi:docname="dribbble.svg"
   inkscape:version="0.92.5 (2060ec1f9f, 2020-04-08)"><metadata
   id="metadata39"><rdf:RDF><cc:Work
       rdf:about=""><dc:format>image/svg+xml</dc:format><dc:type
         rdf:resource="http://purl.org/dc/dcmitype/StillImage" /><dc:title></dc:title></cc:Work></rdf:RDF></metadata><defs
   id="defs37" /><sodipodi:namedview
   pagecolor="#ffffff"
   bordercolor="#666666"
   borderopacity="1"
   objecttolerance="10"
   gridtolerance="10"
   guidetolerance="10"
   inkscape:pageopacity="0"
   inkscape:pageshadow="2"
   inkscape:window-width="1366"
   inkscape:window-height="704"
   id="namedview35"
   showgrid="false"
   inkscape:zoom="1.2630723"
   inkscape:cx="79.567891"
   inkscape:cy="93.422997"
   inkscape:window-x="0"
   inkscape:window-y="27"
   inkscape:window-maximized="1"
   inkscape:current-layer="Capa_1" />
<path
   d="M93.423,0.001C41.909,0.001,0,41.91,0,93.423s41.909,93.422,93.423,93.422s93.423-41.909,93.423-93.422  S144.937,0.001,93.423,0.001z M154.303,44.061c10.488,12.91,16.945,29.205,17.482,46.968c-19.428-4.022-37.02-3.55-52.55-0.505  c-2.812-6.576-5.723-12.841-8.661-18.762C127.487,64.476,142.211,55.17,154.303,44.061z M143.779,33.365  c-12.003,10.956-25.913,19.068-40.156,25.057C93.169,39.305,83.167,24.909,77.074,16.728c5.276-1.124,10.743-1.727,16.349-1.727  C112.58,15.001,130.145,21.915,143.779,33.365z M61.924,21.627c4.601,5.962,15.56,20.89,27.332,42.129  C59.67,73.395,30.962,75.019,17.167,75.17C22.917,51.15,39.738,31.399,61.924,21.627z M15.082,90.208  c0.148,0,0.291,0.001,0.442,0.001c9.532,0,26.996-0.641,47.556-4.39c11.73-2.139,22.853-5.018,33.29-8.586  c2.717,5.415,5.418,11.127,8.037,17.114c-14.614,4.705-26.938,11.475-36.7,18.197c-16.37,11.273-27.838,23.78-34.1,31.513  C22.013,130.384,15,112.712,15,93.423C15,92.345,15.038,91.276,15.082,90.208z M44.416,154.582  c5.391-6.788,16.364-19.143,32.237-29.984c10.787-7.368,21.947-12.842,33.436-16.435c6.666,17.278,12.357,36.369,15.75,56.64  c-9.888,4.508-20.858,7.042-32.416,7.042C74.891,171.845,57.852,165.37,44.416,154.582z M139.639,156.726  c-3.497-18.617-8.712-36.122-14.741-52.12c14.83-2.502,30.157-1.986,45.899,1.55C167.402,126.846,155.889,144.83,139.639,156.726z"
   fill="#f9f9f9ff"
   id="path2"
   style="fill:#000000;stroke:#000000" />
<g
   id="g4"
   style="fill:#000000;stroke:#000000">
</g>
<g
   id="g6"
   style="fill:#000000;stroke:#000000">
</g>
<g
   id="g8"
   style="fill:#000000;stroke:#000000">
</g>
<g
   id="g10"
   style="fill:#000000;stroke:#000000">
</g>
<g
   id="g12"
   style="fill:#000000;stroke:#000000">
</g>
<g
   id="g14"
   style="fill:#000000;stroke:#000000">
</g>
<g
   id="g16"
   style="fill:#000000;stroke:#000000">
</g>
<g
   id="g18"
   style="fill:#000000;stroke:#000000">
</g>
<g
   id="g20"
   style="fill:#000000;stroke:#000000">
</g>
<g
   id="g22"
   style="fill:#000000;stroke:#000000">
</g>
<g
   id="g24"
   style="fill:#000000;stroke:#000000">
</g>
<g
   id="g26"
   style="fill:#000000;stroke:#000000">
</g>
<g
   id="g28"
   style="fill:#000000;stroke:#000000">
</g>
<g
   id="g30"
   style="fill:#000000;stroke:#000000">
</g>
<g
   id="g32"
   style="fill:#000000;stroke:#000000">
</g>
</svg>