<svg fill="#000000" xmlns="http://www.w3.org/2000/svg"  viewBox="0 0 80 80" width="80px" height="80px"><path d="M 39 9 C 32.078125 9 25.671875 12.902344 20.96875 16.722656 C 16.261719 20.546875 13.21875 24.375 13.21875 24.375 L 12.378906 25.429688 L 13.628906 25.925781 C 13.628906 25.925781 14.652344 26.328125 15.761719 27.546875 C 16.867188 28.765625 18 30.738281 18 34 C 18 38.023438 18.695313 41.027344 19.050781 42.316406 C 17.855469 42.855469 17 44.023438 17 45.402344 C 17 46.171875 17.246094 46.914063 17.457031 47.636719 C 17.5625 47.996094 17.667969 48.335938 17.738281 48.597656 C 17.808594 48.863281 17.832031 49.109375 17.832031 49 C 17.832031 50.667969 19.246094 52 20.917969 52 L 21 52 L 21 52.050781 C 21 61.320313 27.664063 69.027344 36.457031 70.6875 C 37.433594 71.472656 38.644531 72 40 72 C 41.355469 72 42.566406 71.472656 43.542969 70.6875 C 52.335938 69.027344 59 61.320313 59 52.050781 L 59 52 L 59.082031 52 C 60.75 52 62.167969 50.667969 62.167969 49 C 62.167969 49.109375 62.191406 48.863281 62.261719 48.597656 C 62.332031 48.335938 62.4375 47.996094 62.542969 47.636719 C 62.753906 46.914063 63 46.171875 63 45.402344 C 63 44.105469 62.238281 43 61.15625 42.425781 C 61.578125 40.554688 63 34.015625 63 29.523438 C 63 19.679688 56.695313 15.453125 51.628906 15.128906 C 51.347656 14.617188 50.671875 13.507813 49.089844 12.222656 C 47.082031 10.597656 43.828125 9 39 9 Z M 39 11 C 43.394531 11 46.140625 12.402344 47.828125 13.777344 C 49.515625 15.148438 50.09375 16.421875 50.09375 16.421875 L 50.359375 17 L 51 17 C 55.074219 17 61 20.148438 61 29.523438 C 61 33.640625 59.558594 40.371094 59.183594 42.066406 C 59.121094 42.089844 59.0625 42.113281 59 42.121094 L 59 38.5 C 59 33.503906 57 30.40625 54.972656 28.671875 C 52.949219 26.941406 50.855469 26.492188 50.855469 26.492188 L 50.277344 26.371094 L 49.890625 26.816406 C 49.890625 26.816406 48.894531 27.988281 46.59375 29.238281 C 44.292969 30.492188 40.746094 31.765625 35.765625 31.765625 C 33.320313 31.765625 29.761719 32.210938 26.675781 33.839844 C 23.820313 35.351563 21.472656 38.089844 21.132813 42.152344 C 21.113281 42.148438 21.097656 42.140625 21.078125 42.136719 C 20.898438 41.582031 20 38.625 20 34 C 20 30.261719 18.632813 27.730469 17.238281 26.203125 C 16.632813 25.535156 16.042969 25.113281 15.53125 24.769531 C 16.378906 23.765625 18.539063 21.269531 22.226563 18.277344 C 26.753906 14.597656 32.84375 11 39 11 Z M 51 19 C 50.449219 19 50 19.449219 50 20 C 50 20.550781 50.449219 21 51 21 C 51.550781 21 52 20.550781 52 20 C 52 19.449219 51.550781 19 51 19 Z M 51 23 C 50.449219 23 50 23.449219 50 24 C 50 24.550781 50.449219 25 51 25 C 51.550781 25 52 24.550781 52 24 C 52 23.449219 51.550781 23 51 23 Z M 50.894531 28.605469 C 51.390625 28.753906 52.398438 29.101563 53.671875 30.191406 C 55.324219 31.605469 57 34.023438 57 38.5 L 57 44.859375 L 58.375 44.308594 C 58.867188 44.105469 59.335938 44 59.5 44 C 60.363281 44 61 44.636719 61 45.398438 L 61 45.402344 C 61 45.597656 60.828125 46.375 60.625 47.074219 C 60.519531 47.421875 60.414063 47.765625 60.328125 48.078125 C 60.246094 48.386719 60.167969 48.613281 60.167969 49 C 60.167969 49.542969 59.714844 50 59.082031 50 L 57 50 L 57 52.050781 C 57 60.425781 50.957031 67.351563 43 68.769531 L 42.71875 68.824219 L 42.503906 69.015625 C 41.832031 69.628906 40.964844 70 40 70 C 39.035156 70 38.167969 69.628906 37.496094 69.015625 L 37.28125 68.824219 L 37 68.769531 C 29.042969 67.351563 23 60.425781 23 52.050781 L 23 50 L 20.917969 50 C 20.285156 50 19.832031 49.542969 19.832031 49 C 19.832031 48.613281 19.753906 48.386719 19.667969 48.078125 C 19.582031 47.765625 19.480469 47.421875 19.375 47.074219 C 19.171875 46.375 19 45.597656 19 45.402344 C 19 44.636719 19.636719 44 20.5 44 C 20.664063 44 21.132813 44.105469 21.625 44.308594 L 23 44.859375 L 23 43.078125 C 23 39.171875 24.972656 37.003906 27.613281 35.609375 C 30.253906 34.214844 33.578125 33.765625 35.765625 33.765625 C 41.089844 33.765625 44.988281 32.390625 47.546875 30.996094 C 49.4375 29.96875 50.394531 29.097656 50.894531 28.605469 Z M 32 44 C 30.894531 44 30 44.894531 30 46 C 30 47.105469 30.894531 48 32 48 C 33.105469 48 34 47.105469 34 46 C 34 44.894531 33.105469 44 32 44 Z M 48 44 C 46.894531 44 46 44.894531 46 46 C 46 47.105469 46.894531 48 48 48 C 49.105469 48 50 47.105469 50 46 C 50 44.894531 49.105469 44 48 44 Z"/></svg>