<svg viewBox="1 -47 511.99894 511" xmlns="http://www.w3.org/2000/svg"><path d="m431.785156 239.917969v-29.292969c0-16.800781-1.199218-33.710938-3.558594-50.371094 4.964844-3.761718 8.8125-8.828125 11.117188-14.785156 3.277344-8.464844 3.0625-17.699219-.605469-26.003906-9.980469-22.585938-23.945312-42.945313-41.515625-60.511719-77.9375-77.9375-204.761718-77.9375-282.703125 0-17.566406 17.566406-31.53125 37.925781-41.511719 60.511719-3.667968 8.304687-3.882812 17.539062-.605468 26.003906 2.304687 5.957031 6.152344 11.023438 11.117187 14.785156-2.359375 16.660156-3.558593 33.570313-3.558593 50.371094v29.296875c-44.269532 1.070313-79.960938 37.386719-79.960938 81.910156 0 45.191407 36.765625 81.957031 81.960938 81.957031h4.167968c6.152344 8.757813 16.320313 14.496094 27.816406 14.496094 18.738282 0 33.980469-15.242187 33.980469-33.980468v-124.9375c0-18.742188-15.242187-33.984376-33.980469-33.984376-4.988281 0-9.722656 1.089844-13.996093 3.027344v-17.785156c0-14.484375.957031-29.058594 2.820312-43.457031.4375.015625.871094.035156 1.3125.035156 4.140625 0 8.292969-.769531 12.277344-2.3125 8.464844-3.277344 15.148437-9.652344 18.816406-17.957031 6.574219-14.878906 15.796875-28.308594 27.40625-39.917969 24.917969-24.921875 58.050781-38.644531 93.289063-38.644531 35.242187 0 68.375 13.722656 93.292968 38.644531 11.609376 11.609375 20.828126 25.039063 27.402344 39.917969 5.4375 12.304687 17.644532 20.253906 31.097656 20.253906.4375 0 .875-.015625 1.3125-.035156 1.859376 14.40625 2.816407 28.980468 2.816407 43.472656v17.667969c-4.203125-1.863281-8.847657-2.910157-13.738281-2.910157-18.738282 0-33.980469 15.242188-33.980469 33.980469v124.9375c0 18.742188 15.242187 33.984375 33.980469 33.984375 11.492187 0 21.664062-5.738281 27.816406-14.496094h4.167968c45.191407 0 81.960938-36.765624 81.960938-81.960937 0-44.605469-35.828125-80.976563-80.214844-81.910156zm-411.796875 81.914062c0-33.5 26.726563-60.859375 59.972657-61.917969v123.835938c-33.246094-1.0625-59.972657-28.417969-59.972657-61.917969zm93.957031-76.460937c7.714844 0 13.992188 6.277344 13.992188 13.996094v124.9375c0 7.714843-6.277344 13.992187-13.992188 13.992187-7.71875 0-13.996093-6.277344-13.996093-13.992187v-124.9375c0-7.71875 6.277343-13.996094 13.996093-13.996094zm280.90625-106.515625c-7.574218-17.148438-18.191406-32.613281-31.550781-45.976563-28.695312-28.695312-66.847656-44.5-107.425781-44.5-40.582031 0-78.734375 15.804688-107.429688 44.5-13.363281 13.363282-23.976562 28.828125-31.550781 45.972656-1.511719 3.421876-4.265625 6.046876-7.75 7.398438-3.488281 1.347656-7.289062 1.257812-10.707031-.253906-3.417969-1.507813-6.046875-4.261719-7.394531-7.746094-1.347657-3.484375-1.261719-7.285156.25-10.707031 8.976562-20.316407 21.546875-38.640625 37.363281-54.453125 35.078125-35.078125 81.140625-52.609375 127.21875-52.609375 46.0625 0 92.144531 17.539062 127.214844 52.609375 15.8125 15.8125 28.386718 34.136718 37.363281 54.453125 1.507813 3.417969 1.597656 7.222656.25 10.707031-1.351563 3.484375-3.976563 6.238281-7.394531 7.746094-1.804688.796875-3.703125 1.199218-5.644532 1.199218-5.542968.003907-10.570312-3.273437-12.8125-8.339843zm3.203126 259.441406c-7.714844 0-13.992188-6.277344-13.992188-13.992187v-124.9375c0-7.71875 6.277344-13.996094 13.992188-13.996094 7.71875 0 13.996093 6.277344 13.996093 13.996094v124.9375c0 7.714843-6.277343 13.992187-13.996093 13.992187zm33.984374-14.546875v-123.835938c33.246094 1.058594 59.972657 28.417969 59.972657 61.917969 0 33.496094-26.726563 60.855469-59.972657 61.917969zm0 0"/><path d="m335.8125 207.164062v-85.5625c0-3.070312-1.410156-5.972656-3.828125-7.867187-2.414063-1.894531-5.566406-2.574219-8.550781-1.839844l-89.054688 21.882813c-4.46875 1.097656-7.609375 5.105468-7.609375 9.707031v57.902344c-12.722656-5.007813-28.441406-1.851563-39.453125 9.160156-14.429687 14.429687-15.390625 36.949219-2.140625 50.199219 6.089844 6.089844 14.222657 9.375 23.089844 9.375.714844 0 1.433594-.023438 2.160156-.066406 9.253907-.546876 18.113281-4.613282 24.949219-11.445313 6.476562-6.480469 10.464844-14.78125 11.328125-23.511719.003906-.027344.003906-.050781.007813-.078125.042968-.453125.085937-.90625.113281-1.363281.101562-1.726562.074219-3.433594-.066407-5.105469v-77.230469l69.066407-16.972656v45.160156c-12.71875-5.007812-28.441407-1.855468-39.453125 9.160157-14.429688 14.429687-15.386719 36.949219-2.140625 50.199219 6.257812 6.253906 14.578125 9.339843 23.136719 9.339843 9.570312 0 19.445312-3.863281 27.0625-11.480469 6.476562-6.476562 10.230468-14.582031 11.210937-22.75.109375-.585937.171875-1.1875.171875-1.804687.117188-1.679687.121094-3.351563 0-5.007813zm-114.574219 37.308594c-3.371093 3.371094-7.628906 5.367188-11.996093 5.628906-3.914063.222657-7.449219-1.007812-9.929688-3.492187-5.457031-5.453125-4.496094-15.292969 2.136719-21.925781 3.742187-3.742188 8.5-5.679688 12.917969-5.679688 3.417968 0 6.632812 1.160156 9.011718 3.539063 1.859375 1.859375 3.023438 4.308593 3.390625 7.066406v3.773437c-.464843 4.046876-2.394531 7.953126-5.53125 11.089844zm67.128907-19.742187c-5.457032-5.457031-4.496094-15.292969 2.140624-21.929688 3.738282-3.742187 8.496094-5.675781 12.914063-5.675781 3.417969 0 6.632813 1.15625 9.011719 3.539062 1.917968 1.914063 3.027344 4.378907 3.390625 7.046876v3.988281c-.496094 3.808593-2.355469 7.714843-5.527344 10.890625-6.636719 6.636718-16.472656 7.59375-21.929687 2.140625zm0 0"/><path d="m195.902344 349.351562c-5.519532 0-9.996094 4.476563-9.996094 9.996094v48.945313c0 5.519531 4.476562 9.992187 9.996094 9.992187 5.519531 0 9.996094-4.472656 9.996094-9.992187v-48.945313c0-5.519531-4.476563-9.996094-9.996094-9.996094zm0 0"/><path d="m235.882812 300.011719c-5.519531 0-9.996093 4.476562-9.996093 9.996093v98.285157c0 5.519531 4.476562 9.992187 9.996093 9.992187 5.519532 0 9.996094-4.472656 9.996094-9.992187v-98.285157c0-5.519531-4.476562-9.996093-9.996094-9.996093zm0 0"/><path d="m275.863281 363.980469c-5.519531 0-9.996093 4.476562-9.996093 9.996093v34.316407c0 5.519531 4.476562 9.992187 9.996093 9.992187s9.996094-4.472656 9.996094-9.992187v-34.316407c0-5.519531-4.476563-9.996093-9.996094-9.996093zm0 0"/><path d="m315.84375 349.351562c-5.519531 0-9.996094 4.476563-9.996094 9.996094v48.945313c0 5.519531 4.476563 9.992187 9.996094 9.992187s9.996094-4.472656 9.996094-9.992187v-48.945313c0-5.519531-4.476563-9.996094-9.996094-9.996094zm0 0"/><path d="m315.84375 311.839844c-2.628906 0-5.207031 1.058594-7.066406 2.917968-1.859375 1.871094-2.929688 4.4375-2.929688 7.078126 0 2.628906 1.070313 5.207031 2.929688 7.066406s4.4375 2.925781 7.066406 2.925781 5.207031-1.066406 7.066406-2.925781 2.929688-4.4375 2.929688-7.066406c0-2.640626-1.070313-5.207032-2.929688-7.078126-1.859375-1.859374-4.4375-2.917968-7.066406-2.917968zm0 0"/></svg>