<svg height="682pt" viewBox="-134 -21 682 682.66656" width="682pt" xmlns="http://www.w3.org/2000/svg"><path d="m2.257812 196.59375c1.066407.3125 2.1875.417969 3.300782.417969h.019531l46.371094-.074219c6.878906-.011719 12.445312-5.597656 12.429687-12.476562l-.007812-7.050782c2.496094 1.230469 5.132812 2.496094 7.855468 3.742188 19.628907 8.984375 31.308594 11.339844 38.75 11.339844 3.375 0 5.878907-.488282 7.855469-1.058594 6.308594-1.824219 12.882813-4.742188 19.835938-7.828125 12.578125-5.578125 26.828125-11.902344 41.808593-12.566407 18.707032-.824218 60.335938-7.789062 69.589844-24.039062 2.980469-5.234375 4.664063-12.4375 4.882813-19.355469 15.152343 1.09375 30.097656 5.1875 43.664062 12.023438l69.398438 34.980469c3.773437 1.898437 7.890625 2.84375 12 2.84375 7.121093 0 14.230469-2.835938 19.535156-8.488282 4.738281-5.054687 7.160156-11.855468 7.144531-18.785156l-.015625-10.527344c-.011719-8.554687-4.125-16.582031-11.058593-21.589844l-6.199219-4.480468c-5.382813-3.878906-13.007813-3.210938-17.234375 1.90625-4.621094 5.605468-3.496094 13.855468 2.300781 18.039062 4.574219 3.300782 7.285156 8.601563 7.296875 14.238282l.003906 3.007812c0 .660156-.355468 1.261719-.9375 1.570312-.507812.265626-1.117187.273438-1.625.019532l-69.398437-34.980469c-19.46875-9.816406-41.269531-14.996094-63.074219-14.996094-.070312 0-.144531 0-.214844 0l-105.339844.167969c-.019531 0-.039062 0-.058593 0-4.632813 0-6.429688-.832031-6.84375-1.066406-.535157-1.355469-.175781-5.429688-.007813-7.421875.117188-1.347657.242188-2.730469.285156-4.105469.214844-6.910156-5.03125-13.179688-11.933593-13.453125-7.109375-.277344-12.960938 5.402344-12.960938 12.445313 0 .621093-.105469 1.804687-.203125 2.945312-.582031 6.636719-1.546875 17.738281 6.425782 26.425781 5.566406 6.066407 14.058593 9.140625 25.242187 9.140625h.09375l88.792969-.140625c-.144532 2.40625-.601563 5.050781-1.308594 6.703125-4.679688 3.785156-26.378906 11.074219-49.339844 12.085938-19.683594.867187-36.941406 8.527344-50.816406 14.6875-6.15625 2.726562-11.972656 5.3125-16.621094 6.660156-5.753906 1.347656-27.378906-7.003906-47.613281-18.140625l-.164063-102.054687 76.5625-.121094c15.539063 0 31.214844 1.164062 46.582032 3.542968l73.183594 11.3125c12.3125 1.90625 24.167968 6.738282 34.300781 13.984376 5.34375 3.820312 12.867187 3.199218 17.101562-1.816407 4.734375-5.605469 3.632813-13.9375-2.203125-18.152343-13.382812-9.664063-29.082031-16.109376-45.394531-18.628907l-73.183594-11.316406c-16.507812-2.554687-33.195312-3.835937-49.898437-3.835937h-.527344l-76.5625.117187-.011719-9.953125c-.015625-6.871094-5.585937-12.4375-12.457031-12.4375h-.019531l-46.113281.0742188c-1.828126 0-3.652344.3164062-5.316407 1.0742192-4.636719 2.097656-7.382812 6.609374-7.375 11.398437l.269531 172.027344c.007813 5.367187 3.476563 10.367187 9.15625 12.019531zm36.960938-171.664062.015625 9.382812c-.011719.195312-.03125.382812-.03125.578125l.195313 121.722656c0 .152344.027343.300781.03125.449219l.023437 14.980469-21.464844.039062-.230469-147.117187zm0 0"/><path d="m406.507812 455.425781c-.015624-6.875-5.585937-12.4375-12.457031-12.4375-.003906 0-.015625 0-.019531 0l-46.371094.074219c-3.300781.003906-6.46875 1.324219-8.800781 3.664062-2.332031 2.335938-3.636719 5.507813-3.632813 8.8125v2.597657c-1.886718-25.121094-9.984374-49.347657-23.714843-70.648438-14.410157-22.359375-38.460938-36.078125-64.863281-37.207031 8.320312-10.78125 13.292968-24.277344 13.292968-38.917969v-38.699219c0-.722656-.03125-1.4375-.054687-2.152343.015625-.304688.046875-.601563.042969-.910157-.515626-33.496093-28.1875-60.742187-61.683594-60.742187h-4.199219c-34.023437 0-61.707031 27.683594-61.707031 61.703125v1.71875c0 .128906-.011719.253906-.011719.382812v38.699219c0 14.621094 4.957031 28.097657 13.257813 38.867188-26.890626.75-51.46875 14.550781-66.101563 37.257812-15.800781 24.519531-24.15625 52.898438-24.15625 82.074219v7.703125l-23.746094-11.964844c-7.71875-3.898437-16.890625-3.796875-24.53125.261719-8.746093 4.648438-14.167969 13.695312-14.15625 23.605469l.015625 11.082031c.015625 8.523438 4.152344 16.597656 11.058594 21.585938l18.707031 13.511718 23.921875 17.703125c.0625.050781.132813.097657.195313.148438l36.929687 26.226562 6.179688 4.460938c13.378906 9.664062 29.078125 16.109375 45.390625 18.628906l73.183593 11.316406c16.464844 2.546875 33.253907 3.835938 49.914063 3.835938h.507813l76.582031-.117188.015625 10.011719c.011718 6.875 5.585937 12.4375 12.457031 12.4375h.019531l46.367188-.074219c3.304687-.003906 6.46875-1.324219 8.800781-3.660156 2.332031-2.339844 3.640625-5.507813 3.632813-8.816406zm-249.265624-144.0625v-13.597656c6.136718 1.085937 11.667968 1.652344 16.589843 1.652344 5.933594 0 11-.792969 15.269531-2.363281 2.949219-1.085938 5.820313-2.195313 8.628907-3.273438 14.03125-5.394531 25.117187-9.664062 34.300781-7.5.980469.230469 1.980469.371094 3 .441406v24.640625c0 20.714844-16.277344 37.695313-36.714844 38.835938h-4.363281c-20.433594-1.140625-36.710937-18.121094-36.710937-38.835938zm38.894531-77.59375c17.472656 0 32.28125 11.574219 37.175781 27.464844-15.03125-2.027344-29.398438 3.480469-44.523438 9.300781-2.699218 1.039063-5.464843 2.097656-8.300781 3.144532-1.652343.609374-7.730469 2.046874-23.238281-1.273438v-.128906c.207031-21.269532 17.570312-38.507813 38.886719-38.507813zm-115.898438 235.789063c0-24.375 6.980469-48.085938 20.183594-68.582032 10.441406-16.199218 28.179687-25.871093 47.457031-25.871093h35.800782v54.457031c0 6.875 5.578124 12.457031 12.457031 12.457031 6.875 0 12.453125-5.582031 12.453125-12.457031v-54.457031h34.523437c19.277344 0 37.015625 9.671875 47.460938 25.871093 9.933593 15.410157 16.339843 32.652344 18.90625 50.621094-15.984375-5.351562-23.90625-4.488281-28.71875-3.09375-6.308594 1.824219-12.882813 4.738282-19.835938 7.824219-12.578125 5.582031-26.832031 11.910156-41.808593 12.570313-18.707032.824218-60.339844 7.789062-69.589844 24.042968-2.984375 5.238282-4.667969 12.441406-4.890625 19.367188-1.660157-.121094-3.308594-.292969-4.960938-.480469v-20.503906c0-6.875-5.574219-12.449219-12.453125-12.449219-6.882812 0-12.457031 5.574219-12.457031 12.449219v14.761719c-4.710937-1.648438-9.328125-3.566407-13.785156-5.8125l-20.742188-10.453126zm178.628907 123.199218c-15.542969-.007812-31.21875-1.171874-46.582032-3.542968l-73.183594-11.320313c-12.441406-1.921875-24.410156-6.835937-34.613281-14.203125l-6.261719-4.515625-36.90625-26.214843-23.875-17.675782c-.039062-.03125-.082031-.058594-.121093-.089844l-9.773438-7.058593c-6.109375-4.410157-9.734375-11.480469-9.742187-19.015625 0-.652344.355468-1.253906.9375-1.566406.507812-.269532 1.117187-.273438 1.628906-.015626l69.402344 34.980469c10.988281 5.539063 22.722656 9.605469 34.78125 12.09375.136718.03125.273437.054688.40625.078125 9.242187 1.882813 18.671875 2.839844 28.097656 2.824219l7.933594-.015625c.171875.003906.339844.003906.511718 0l96.890626-.15625h.0625c4.632812 0 6.425781.832031 6.84375 1.070312.535156 1.351563.175781 5.425782.007812 7.421876-.117188 1.347656-.242188 2.730468-.285156 4.105468-.214844 6.90625 5.03125 13.175782 11.933594 13.449219 7.109374.277344 12.960937-5.402344 12.960937-12.449219 0-.617187.105469-1.800781.203125-2.941406.582031-6.632812 1.546875-17.734375-6.425781-26.421875-5.566407-6.066406-14.058594-9.140625-25.242188-9.140625-.03125 0-.066406 0-.09375 0l-88.804687.140625c.152344-2.40625.617187-5.058594 1.320312-6.707031 4.683594-3.785156 26.382813-11.074219 49.339844-12.085938 19.683594-.867187 36.941406-8.53125 50.816406-14.683594 6.15625-2.734374 11.972656-5.316406 16.621094-6.660156 5.753906-1.375 27.390625 7.003906 47.628906 18.144532l.164063 102.046874zm101.519531 22.3125-.011719-9.738281c0-.097656.007812-.183593.007812-.28125l-.191406-121.71875c0-.078125-.011718-.148437-.011718-.21875l-.027344-15.15625 21.460937-.035156.234375 147.117187zm0 0"/><path d="m119.46875 451.851562.414062.3125c2.253907 1.71875 4.902344 2.542969 7.535157 2.542969 3.753906 0 7.46875-1.6875 9.914062-4.910156 4.171875-5.472656 3.113281-13.285156-2.363281-17.453125l-.414062-.316406c-5.472657-4.164063-13.285157-3.105469-17.449219 2.367187-4.171875 5.480469-3.113281 13.292969 2.363281 17.457031zm0 0"/><path d="m335.265625 104.050781.410156.3125c2.253907 1.707031 4.894531 2.53125 7.515625 2.53125 3.765625 0 7.484375-1.699219 9.9375-4.933593 4.152344-5.476563 3.078125-13.289063-2.402344-17.445313l-.410156-.3125c-5.484375-4.160156-13.296875-3.082031-17.453125 2.398437-4.152343 5.484376-3.078125 13.296876 2.402344 17.449219zm0 0"/></svg>