<?xml version="1.0" encoding="iso-8859-1"?>
<!-- Generator: Adobe Illustrator 19.0.0, SVG Export Plug-In . SVG Version: 6.00 Build 0)  -->
<svg version="1.1" id="Capa_1" xmlns="http://www.w3.org/2000/svg" xmlns:xlink="http://www.w3.org/1999/xlink" x="0px" y="0px"
	 viewBox="0 0 512 512" style="enable-background:new 0 0 512 512;" xml:space="preserve">
<g>
	<g>
		<path d="M72.82,289.937c-1.86-1.859-4.44-2.93-7.07-2.93s-5.21,1.07-7.07,2.93s-2.93,4.44-2.93,7.07s1.07,5.21,2.93,7.07
			c1.86,1.86,4.44,2.93,7.07,2.93s5.21-1.07,7.07-2.93s2.93-4.44,2.93-7.07S74.68,291.797,72.82,289.937z"/>
	</g>
</g>
<g>
	<g>
		<path d="M30.667,287.008H10c-5.523,0-10,4.478-10,10c0,5.522,4.477,10,10,10h20.667c5.522,0,10-4.477,10-10
			C40.667,291.486,36.19,287.008,30.667,287.008z"/>
	</g>
</g>
<g>
	<g>
		<path d="M502,363.303h-60.459c-0.494,0-0.987,0.036-1.475,0.109l-40.243,6.001c-16.63,2.477-33.279-5.74-41.421-20.455
			l-20.024-36.191c-0.458-0.829-1.033-1.589-1.705-2.256l-83.574-82.969c-12.038-11.951-14.589-30.094-7.311-44.654l15.283,12.647
			l0.096,0.081c0.005,0.004,0.011,0.008,0.017,0.013l35.213,29.14l12.751-15.408l-35.132-29.072l-68.04-57.14
			c-2.34-1.964-5.449-2.749-8.441-2.138c-2.993,0.614-5.541,2.563-6.917,5.29c-13.499,26.743-8.337,58.943,12.846,80.126
			l35.145,35.146l-116.38,45.436H105.25c-5.523,0-10,4.478-10,10c0,5.522,4.477,10,10,10h18.862c1.244,0,2.478-0.232,3.637-0.685
			l118.383-46.218c5.985-2.338,12.741-0.041,16.063,5.461l37.906,62.794c1.892,3.135,2.394,6.804,1.414,10.332
			c-0.98,3.527-3.304,6.411-6.542,8.119l-32.73,17.271c-6.708,3.537-14.959,1.766-19.621-4.216l-14.172-18.186
			c-1.541-1.978-2.19-4.433-1.827-6.914c0.363-2.481,1.689-4.649,3.732-6.103c3.995-2.841,9.475-2.03,12.477,1.847l5.958,7.694
			c3.381,4.367,9.662,5.167,14.029,1.785c4.367-3.382,5.166-9.662,1.785-14.029l-5.958-7.694
			c-9.594-12.391-27.111-14.982-39.88-5.901c-6.533,4.646-10.771,11.573-11.931,19.506c-1.161,7.932,0.914,15.782,5.841,22.104
			l3.137,4.026l-18.914,9.187c-8.512,4.135-18.373,4.345-27.053,0.577l-36.958-16.038c-1.831-0.795-3.859-1.023-5.821-0.655
			L18.685,371.36c-5.429,1.016-9.005,6.24-7.989,11.669c0.899,4.807,5.099,8.162,9.818,8.162c0.61,0,1.229-0.057,1.851-0.173
			l105.371-19.725l34.148,14.818c14.039,6.094,29.986,5.753,43.754-0.934l22.835-11.092c6.904,7.685,16.591,11.814,26.477,11.814
			c5.641,0,11.345-1.343,16.628-4.13l32.729-17.27c8.039-4.242,14.044-11.696,16.478-20.453c2.139-7.694,1.394-15.949-2.004-23.118
			l2.789,2.769l19.333,34.941c10.719,19.373,31.303,31.209,53.047,31.209c2.927,0,5.876-0.215,8.825-0.654l39.509-5.892H502
			c5.523,0,10-4.478,10-10C512,367.779,507.523,363.303,502,363.303z M221.859,196.536l-4.252-4.252
			c-11.89-11.889-16.681-28.658-13.451-44.547l26.125,21.94C225.234,177.956,222.43,187.194,221.859,196.536z"/>
	</g>
</g>
<g>
	<g>
		<path d="M335.28,230.985l-0.608-0.504c-4.254-3.525-10.558-2.932-14.081,1.322c-3.523,4.254-2.931,10.558,1.323,14.08l0.608,0.504
			c1.866,1.546,4.126,2.299,6.374,2.299c2.875,0,5.729-1.233,7.707-3.621C340.125,240.811,339.534,234.507,335.28,230.985z"/>
	</g>
</g>
<g>
	<g>
		<path d="M502,292.496h-70.473c-14.108,0-27.87-4.947-38.741-13.924l-32.063-26.532c-4.255-3.521-10.559-2.927-14.08,1.329
			c-3.52,4.254-2.925,10.558,1.33,14.079l32.071,26.539c14.455,11.936,32.739,18.509,51.484,18.509H502c5.523,0,10-4.478,10-10
			C512,296.974,507.523,292.496,502,292.496z"/>
	</g>
</g>
<g>
</g>
<g>
</g>
<g>
</g>
<g>
</g>
<g>
</g>
<g>
</g>
<g>
</g>
<g>
</g>
<g>
</g>
<g>
</g>
<g>
</g>
<g>
</g>
<g>
</g>
<g>
</g>
<g>
</g>
</svg>
